<svg width="34" height="33" viewBox="0 0 34 33" fill="none" xmlns="http://www.w3.org/2000/svg">
    <path d="M12.8806 32.1463C12.0454 31.965 10.4278 31.3684 9.29024 30.8195C7.59824 30.0082 6.83984 29.445 5.16464 27.7674C2.97104 25.5695 1.98704 23.9969 1.04144 21.1762C0.225437 18.7493 0.230237 14.2725 1.04864 11.8694C2.03264 8.98668 2.98304 7.46418 5.15504 5.28782C6.71504 3.72952 7.62704 3.03509 8.99984 2.36452C10.9702 1.4052 14.071 0.53418 15.5182 0.53418H16.4398V16.5228V32.5115L15.4198 32.4924C14.8582 32.4828 13.7158 32.3253 12.8806 32.1463ZM19.5598 27.7841V23.0567L22.9462 20.3625C25.579 18.2672 26.4262 17.7112 26.7478 17.8711C26.9734 17.9833 28.5814 19.1979 30.319 20.5701L33.4798 23.0638V27.7888V32.5115H26.5198H19.5598V27.7841ZM22.8598 12.6426L19.5598 9.98895V5.26157V0.53418H26.5198H33.4798V5.25441V9.97463L30.1126 12.6521C28.2598 14.1245 26.611 15.3225 26.4526 15.3129C26.2918 15.3034 24.6742 14.103 22.8598 12.6426Z"
          fill="currentColor"/>
</svg>
